<svg data-v-423bf9ae="" xmlns="http://www.w3.org/2000/svg" viewBox="0 0 651.1290444422492 163" class="iconAbove"><!----><!----><!----><g data-v-423bf9ae="" id="e4efed07-9a30-465b-ac6a-6030ef696aab" fill="white" transform="matrix(5.376344159530915,0,0,5.376344159530915,-6.881719609862046,87.94623923228187)"><path d="M1.28 13.78L1.28 2.80L2.32 2.80L2.32 12.82L6.08 12.82L6.08 13.78L1.28 13.78ZM9.72 13.96L9.72 13.96Q8.80 13.96 8.11 13.50L8.11 13.50L8.11 13.50Q7.42 13.04 7.04 12.09L7.04 12.09L7.04 12.09Q6.65 11.14 6.65 9.74L6.65 9.74L6.65 9.74Q6.65 8.32 7.04 7.36L7.04 7.36L7.04 7.36Q7.42 6.41 8.11 5.94L8.11 5.94L8.11 5.94Q8.80 5.48 9.72 5.48L9.72 5.48L9.72 5.48Q10.62 5.48 11.31 5.94L11.31 5.94L11.31 5.94Q12.00 6.41 12.40 7.36L12.40 7.36L12.40 7.36Q12.79 8.32 12.79 9.74L12.79 9.74L12.79 9.74Q12.79 11.14 12.40 12.08L12.40 12.08L12.40 12.08Q12.00 13.03 11.31 13.49L11.31 13.49L11.31 13.49Q10.62 13.96 9.72 13.96L9.72 13.96ZM9.72 13.04L9.72 13.04Q11.83 13.04 11.83 9.74L11.83 9.74L11.83 9.74Q11.83 6.38 9.72 6.38L9.72 6.38L9.72 6.38Q8.73 6.38 8.18 7.19L8.18 7.19L8.18 7.19Q7.64 8.00 7.64 9.74L7.64 9.74L7.64 9.74Q7.64 11.45 8.18 12.24L8.18 12.24L8.18 12.24Q8.73 13.04 9.72 13.04L9.72 13.04ZM14.29 13.78L14.29 5.63L15.30 5.63L15.30 6.96L15.33 6.96L15.33 6.96Q15.57 6.27 15.99 5.89L15.99 5.89L15.99 5.89Q16.40 5.51 16.92 5.51L16.92 5.51L16.92 5.51Q17.48 5.51 17.77 5.65L17.77 5.65L17.77 6.59L17.77 6.59Q17.38 6.47 17.12 6.47L17.12 6.47L17.12 6.47Q17.04 6.47 17.00 6.48L17.00 6.48L17.00 6.48Q16.17 6.56 15.73 7.30L15.73 7.30L15.73 7.30Q15.29 8.05 15.29 9.39L15.29 9.39L15.29 13.78L14.29 13.78ZM23.93 9.63L23.93 9.63Q23.93 9.98 23.92 10.12L23.92 10.12L19.13 10.12L19.13 10.12Q19.17 10.91 19.42 11.57L19.42 11.57L19.42 11.57Q19.67 12.22 20.15 12.62L20.15 12.62L20.15 12.62Q20.62 13.02 21.32 13.02L21.32 13.02L21.32 13.02Q22.33 13.02 23.11 12.22L23.11 12.22L23.69 12.89L23.69 12.89Q23.17 13.45 22.57 13.70L22.57 13.70L22.57 13.70Q21.98 13.94 21.32 13.94L21.32 13.94L21.32 13.94Q20.26 13.94 19.54 13.34L19.54 13.34L19.54 13.34Q18.83 12.75 18.48 11.78L18.48 11.78L18.48 11.78Q18.14 10.81 18.14 9.69L18.14 9.69L18.14 9.69Q18.14 8.57 18.43 7.62L18.43 7.62L18.43 7.62Q18.72 6.67 19.38 6.07L19.38 6.07L19.38 6.07Q20.05 5.48 21.13 5.48L21.13 5.48L21.13 5.48Q22.29 5.48 22.90 6.09L22.90 6.09L22.90 6.09Q23.52 6.71 23.73 7.62L23.73 7.62L23.73 7.62Q23.93 8.52 23.93 9.63L23.93 9.63ZM21.10 6.40L21.10 6.40Q20.07 6.40 19.62 7.20L19.62 7.20L19.62 7.20Q19.17 8.00 19.13 9.26L19.13 9.26L23.02 9.26L23.02 9.26Q23.00 8.31 22.83 7.69L22.83 7.69L22.83 7.69Q22.67 7.08 22.26 6.74L22.26 6.74L22.26 6.74Q21.85 6.40 21.10 6.40L21.10 6.40ZM25.38 13.78L25.38 5.63L26.37 5.63L26.37 6.77L26.40 6.77L26.40 6.77Q26.67 6.17 27.12 5.82L27.12 5.82L27.12 5.82Q27.58 5.48 28.18 5.48L28.18 5.48L28.18 5.48Q28.86 5.48 29.32 5.80L29.32 5.80L29.32 5.80Q29.78 6.12 29.98 7.01L29.98 7.01L30.01 7.01L30.01 7.01Q30.37 6.21 30.82 5.84L30.82 5.84L30.82 5.84Q31.27 5.48 31.93 5.48L31.93 5.48L31.93 5.48Q32.96 5.48 33.50 6.16L33.50 6.16L33.50 6.16Q34.04 6.84 34.04 8.00L34.04 8.00L34.04 13.78L33.05 13.78L33.05 8.03L33.05 8.03Q33.05 7.32 32.72 6.85L32.72 6.85L32.72 6.85Q32.39 6.38 31.70 6.38L31.70 6.38L31.70 6.38Q30.93 6.38 30.56 7.11L30.56 7.11L30.56 7.11Q30.19 7.83 30.19 8.98L30.19 8.98L30.19 13.78L29.20 13.78L29.20 8.31L29.20 8.31Q29.20 7.37 28.90 6.88L28.90 6.88L28.90 6.88Q28.59 6.38 27.90 6.38L27.90 6.38L27.90 6.38Q27.12 6.38 26.75 7.11L26.75 7.11L26.75 7.11Q26.37 7.83 26.37 8.98L26.37 8.98L26.37 13.78L25.38 13.78ZM38.04 5.48L38.04 5.48Q38.78 5.48 39.35 5.75L39.35 5.75L39.35 5.75Q39.93 6.03 40.26 6.58L40.26 6.58L40.26 6.58Q40.58 7.12 40.58 7.90L40.58 7.90L40.58 13.78L39.73 13.78L39.68 12.46L39.60 12.46L39.60 12.46Q39.24 13.13 38.63 13.55L38.63 13.55L38.63 13.55Q38.01 13.96 37.37 13.96L37.37 13.96L37.37 13.96Q36.76 13.96 36.27 13.69L36.27 13.69L36.27 13.69Q35.79 13.41 35.53 12.94L35.53 12.94L35.53 12.94Q35.26 12.47 35.26 11.90L35.26 11.90L35.26 11.90Q35.26 11.04 35.62 10.45L35.62 10.45L35.62 10.45Q35.97 9.85 36.69 9.41L36.69 9.41L36.69 9.41Q37.26 9.05 38.02 8.81L38.02 8.81L38.02 8.81Q38.77 8.57 39.66 8.47L39.66 8.47L39.66 8.04L39.66 8.04Q39.66 7.17 39.28 6.79L39.28 6.79L39.28 6.79Q38.89 6.41 38.12 6.41L38.12 6.41L38.12 6.41Q37.43 6.41 36.96 6.72L36.96 6.72L36.96 6.72Q36.49 7.03 36.15 7.67L36.15 7.67L35.40 7.13L35.40 7.13Q35.85 6.29 36.50 5.88L36.50 5.88L36.50 5.88Q37.15 5.48 38.04 5.48L38.04 5.48ZM37.50 12.99L37.50 12.99Q38.24 12.99 38.77 12.52L38.77 12.52L38.77 12.52Q39.30 12.04 39.66 11.29L39.66 11.29L39.66 9.34L39.66 9.34Q38.91 9.43 38.26 9.64L38.26 9.64L38.26 9.64Q37.61 9.84 37.15 10.19L37.15 10.19L37.15 10.19Q36.76 10.48 36.54 10.88L36.54 10.88L36.54 10.88Q36.33 11.27 36.33 11.76L36.33 11.76L36.33 11.76Q36.33 12.32 36.66 12.65L36.66 12.65L36.66 12.65Q36.99 12.99 37.50 12.99L37.50 12.99ZM42.48 13.78L42.48 5.63L43.48 5.63L43.48 6.96L43.52 6.96L43.52 6.96Q43.76 6.27 44.17 5.89L44.17 5.89L44.17 5.89Q44.58 5.51 45.10 5.51L45.10 5.51L45.10 5.51Q45.66 5.51 45.95 5.65L45.95 5.65L45.95 6.59L45.95 6.59Q45.56 6.47 45.30 6.47L45.30 6.47L45.30 6.47Q45.22 6.47 45.19 6.48L45.19 6.48L45.19 6.48Q44.36 6.56 43.91 7.30L43.91 7.30L43.91 7.30Q43.47 8.05 43.47 9.39L43.47 9.39L43.47 13.78L42.48 13.78ZM50.13 13.78L50.13 2.80L52.42 2.80L52.42 2.80Q53.84 2.80 54.83 3.44L54.83 3.44L54.83 3.44Q55.82 4.07 56.33 5.32L56.33 5.32L56.33 5.32Q56.84 6.57 56.84 8.39L56.84 8.39L56.84 8.39Q56.84 10.11 56.32 11.32L56.32 11.32L56.32 11.32Q55.79 12.53 54.80 13.16L54.80 13.16L54.80 13.16Q53.81 13.78 52.40 13.78L52.40 13.78L50.13 13.78ZM51.17 12.80L52.24 12.80L52.24 12.80Q54.03 12.80 54.90 11.69L54.90 11.69L54.90 11.69Q55.77 10.58 55.77 8.29L55.77 8.29L55.77 8.29Q55.77 6.00 54.94 4.89L54.94 4.89L54.94 4.89Q54.10 3.77 52.38 3.77L52.38 3.77L51.17 3.77L51.17 12.80ZM63.72 9.63L63.72 9.63Q63.72 9.98 63.71 10.12L63.71 10.12L58.93 10.12L58.93 10.12Q58.97 10.91 59.21 11.57L59.21 11.57L59.21 11.57Q59.46 12.22 59.94 12.62L59.94 12.62L59.94 12.62Q60.42 13.02 61.11 13.02L61.11 13.02L61.11 13.02Q62.13 13.02 62.90 12.22L62.90 12.22L63.49 12.89L63.49 12.89Q62.96 13.45 62.36 13.70L62.36 13.70L62.36 13.70Q61.77 13.94 61.11 13.94L61.11 13.94L61.11 13.94Q60.05 13.94 59.34 13.34L59.34 13.34L59.34 13.34Q58.62 12.75 58.28 11.78L58.28 11.78L58.28 11.78Q57.93 10.81 57.93 9.69L57.93 9.69L57.93 9.69Q57.93 8.57 58.22 7.62L58.22 7.62L58.22 7.62Q58.51 6.67 59.18 6.07L59.18 6.07L59.18 6.07Q59.84 5.48 60.92 5.48L60.92 5.48L60.92 5.48Q62.08 5.48 62.70 6.09L62.70 6.09L62.70 6.09Q63.31 6.71 63.52 7.62L63.52 7.62L63.52 7.62Q63.72 8.52 63.72 9.63L63.72 9.63ZM60.89 6.40L60.89 6.40Q59.86 6.40 59.41 7.20L59.41 7.20L59.41 7.20Q58.97 8.00 58.93 9.26L58.93 9.26L62.81 9.26L62.81 9.26Q62.79 8.31 62.62 7.69L62.62 7.69L62.62 7.69Q62.46 7.08 62.05 6.74L62.05 6.74L62.05 6.74Q61.64 6.40 60.89 6.40L60.89 6.40ZM69.74 2.80L70.73 2.80L70.73 13.78L69.74 13.78L69.74 12.49L69.69 12.49L69.69 12.49Q69.33 13.22 68.80 13.59L68.80 13.59L68.80 13.59Q68.27 13.96 67.52 13.96L67.52 13.96L67.52 13.96Q66.60 13.96 65.95 13.43L65.95 13.43L65.95 13.43Q65.31 12.89 64.99 11.94L64.99 11.94L64.99 11.94Q64.67 10.98 64.67 9.71L64.67 9.71L64.67 9.71Q64.67 8.37 65.00 7.42L65.00 7.42L65.00 7.42Q65.34 6.47 65.98 5.97L65.98 5.97L65.98 5.97Q66.62 5.48 67.52 5.48L67.52 5.48L67.52 5.48Q68.27 5.48 68.79 5.83L68.79 5.83L68.79 5.83Q69.32 6.19 69.69 6.92L69.69 6.92L69.74 6.92L69.74 2.80ZM67.77 13.05L67.77 13.05Q68.39 13.05 68.85 12.64L68.85 12.64L68.85 12.64Q69.30 12.24 69.55 11.48L69.55 11.48L69.55 11.48Q69.79 10.73 69.79 9.71L69.79 9.71L69.79 9.71Q69.79 8.71 69.55 7.96L69.55 7.96L69.55 7.96Q69.30 7.22 68.85 6.82L68.85 6.82L68.85 6.82Q68.39 6.41 67.77 6.41L67.77 6.41L67.77 6.41Q67.20 6.41 66.73 6.76L66.73 6.76L66.73 6.76Q66.25 7.12 65.96 7.86L65.96 7.86L65.96 7.86Q65.67 8.60 65.67 9.71L65.67 9.71L65.67 9.71Q65.67 10.84 65.96 11.59L65.96 11.59L65.96 11.59Q66.25 12.35 66.72 12.70L66.72 12.70L66.72 12.70Q67.20 13.05 67.77 13.05L67.77 13.05ZM78.02 9.63L78.02 9.63Q78.02 9.98 78.00 10.12L78.00 10.12L73.22 10.12L73.22 10.12Q73.26 10.91 73.51 11.57L73.51 11.57L73.51 11.57Q73.75 12.22 74.23 12.62L74.23 12.62L74.23 12.62Q74.71 13.02 75.41 13.02L75.41 13.02L75.41 13.02Q76.42 13.02 77.19 12.22L77.19 12.22L77.78 12.89L77.78 12.89Q77.25 13.45 76.66 13.70L76.66 13.70L76.66 13.70Q76.06 13.94 75.41 13.94L75.41 13.94L75.41 13.94Q74.35 13.94 73.63 13.34L73.63 13.34L73.63 13.34Q72.91 12.75 72.57 11.78L72.57 11.78L72.57 11.78Q72.23 10.81 72.23 9.69L72.23 9.69L72.23 9.69Q72.23 8.57 72.52 7.62L72.52 7.62L72.52 7.62Q72.80 6.67 73.47 6.07L73.47 6.07L73.47 6.07Q74.14 5.48 75.22 5.48L75.22 5.48L75.22 5.48Q76.37 5.48 76.99 6.09L76.99 6.09L76.99 6.09Q77.61 6.71 77.81 7.62L77.81 7.62L77.81 7.62Q78.02 8.52 78.02 9.63L78.02 9.63ZM75.19 6.40L75.19 6.40Q74.16 6.40 73.71 7.20L73.71 7.20L73.71 7.20Q73.26 8.00 73.22 9.26L73.22 9.26L77.10 9.26L77.10 9.26Q77.08 8.31 76.92 7.69L76.92 7.69L76.92 7.69Q76.75 7.08 76.34 6.74L76.34 6.74L76.34 6.74Q75.93 6.40 75.19 6.40L75.19 6.40ZM81.27 13.78L81.27 13.78Q80.42 13.78 80.01 13.28L80.01 13.28L80.01 13.28Q79.60 12.77 79.60 11.74L79.60 11.74L79.60 6.45L78.61 6.45L78.61 5.63L79.60 5.63L79.75 3.76L80.58 3.76L80.58 5.63L82.33 5.63L82.33 6.45L80.58 6.45L80.58 11.55L80.58 11.55Q80.58 12.07 80.67 12.37L80.67 12.37L80.67 12.37Q80.77 12.67 80.97 12.81L80.97 12.81L80.97 12.81Q81.18 12.95 81.54 12.95L81.54 12.95L82.16 12.95L82.16 13.78L81.27 13.78ZM83.49 4.29L83.49 2.80L84.49 2.80L84.49 4.29L83.49 4.29ZM83.49 13.78L83.49 5.63L84.49 5.63L84.49 13.78L83.49 13.78ZM90.83 5.63L90.83 6.49L86.91 12.92L90.78 12.92L90.78 13.78L85.74 13.78L85.74 13.02L89.69 6.48L85.86 6.48L85.86 5.63L90.83 5.63ZM94.21 5.48L94.21 5.48Q94.94 5.48 95.52 5.75L95.52 5.75L95.52 5.75Q96.09 6.03 96.42 6.58L96.42 6.58L96.42 6.58Q96.75 7.12 96.75 7.90L96.75 7.90L96.75 13.78L95.89 13.78L95.84 12.46L95.76 12.46L95.76 12.46Q95.40 13.13 94.79 13.55L94.79 13.55L94.79 13.55Q94.18 13.96 93.54 13.96L93.54 13.96L93.54 13.96Q92.92 13.96 92.44 13.69L92.44 13.69L92.44 13.69Q91.96 13.41 91.69 12.94L91.69 12.94L91.69 12.94Q91.42 12.47 91.42 11.90L91.42 11.90L91.42 11.90Q91.42 11.04 91.78 10.45L91.78 10.45L91.78 10.45Q92.13 9.85 92.85 9.41L92.85 9.41L92.85 9.41Q93.43 9.05 94.18 8.81L94.18 8.81L94.18 8.81Q94.94 8.57 95.83 8.47L95.83 8.47L95.83 8.04L95.83 8.04Q95.83 7.17 95.44 6.79L95.44 6.79L95.44 6.79Q95.05 6.41 94.29 6.41L94.29 6.41L94.29 6.41Q93.60 6.41 93.13 6.72L93.13 6.72L93.13 6.72Q92.65 7.03 92.31 7.67L92.31 7.67L91.57 7.13L91.57 7.13Q92.02 6.29 92.67 5.88L92.67 5.88L92.67 5.88Q93.32 5.48 94.21 5.48L94.21 5.48ZM93.67 12.99L93.67 12.99Q94.40 12.99 94.93 12.52L94.93 12.52L94.93 12.52Q95.46 12.04 95.83 11.29L95.83 11.29L95.83 9.34L95.83 9.34Q95.07 9.43 94.42 9.64L94.42 9.64L94.42 9.64Q93.78 9.84 93.32 10.19L93.32 10.19L93.32 10.19Q92.92 10.48 92.71 10.88L92.71 10.88L92.71 10.88Q92.49 11.27 92.49 11.76L92.49 11.76L92.49 11.76Q92.49 12.32 92.82 12.65L92.82 12.65L92.82 12.65Q93.15 12.99 93.67 12.99L93.67 12.99ZM103.21 2.80L104.20 2.80L104.20 13.78L103.21 13.78L103.21 12.49L103.16 12.49L103.16 12.49Q102.80 13.22 102.27 13.59L102.27 13.59L102.27 13.59Q101.74 13.96 100.99 13.96L100.99 13.96L100.99 13.96Q100.06 13.96 99.42 13.43L99.42 13.43L99.42 13.43Q98.78 12.89 98.46 11.94L98.46 11.94L98.46 11.94Q98.14 10.98 98.14 9.71L98.14 9.71L98.14 9.71Q98.14 8.37 98.47 7.42L98.47 7.42L98.47 7.42Q98.81 6.47 99.45 5.97L99.45 5.97L99.45 5.97Q100.08 5.48 100.99 5.48L100.99 5.48L100.99 5.48Q101.74 5.48 102.26 5.83L102.26 5.83L102.26 5.83Q102.79 6.19 103.16 6.92L103.16 6.92L103.21 6.92L103.21 2.80ZM101.24 13.05L101.24 13.05Q101.86 13.05 102.32 12.64L102.32 12.64L102.32 12.64Q102.77 12.24 103.01 11.48L103.01 11.48L103.01 11.48Q103.26 10.73 103.26 9.71L103.26 9.71L103.26 9.71Q103.26 8.71 103.01 7.96L103.01 7.96L103.01 7.96Q102.77 7.22 102.32 6.82L102.32 6.82L102.32 6.82Q101.86 6.41 101.24 6.41L101.24 6.41L101.24 6.41Q100.67 6.41 100.20 6.76L100.20 6.76L100.20 6.76Q99.72 7.12 99.43 7.86L99.43 7.86L99.43 7.86Q99.14 8.60 99.14 9.71L99.14 9.71L99.14 9.71Q99.14 10.84 99.43 11.59L99.43 11.59L99.43 11.59Q99.72 12.35 100.19 12.70L100.19 12.70L100.19 12.70Q100.67 13.05 101.24 13.05L101.24 13.05ZM108.79 13.96L108.79 13.96Q107.87 13.96 107.18 13.50L107.18 13.50L107.18 13.50Q106.49 13.04 106.10 12.09L106.10 12.09L106.10 12.09Q105.72 11.14 105.72 9.74L105.72 9.74L105.72 9.74Q105.72 8.32 106.10 7.36L106.10 7.36L106.10 7.36Q106.49 6.41 107.18 5.94L107.18 5.94L107.18 5.94Q107.86 5.48 108.79 5.48L108.79 5.48L108.79 5.48Q109.69 5.48 110.38 5.94L110.38 5.94L110.38 5.94Q111.07 6.41 111.46 7.36L111.46 7.36L111.46 7.36Q111.86 8.32 111.86 9.74L111.86 9.74L111.86 9.74Q111.86 11.14 111.46 12.08L111.46 12.08L111.46 12.08Q111.07 13.03 110.38 13.49L110.38 13.49L110.38 13.49Q109.69 13.96 108.79 13.96L108.79 13.96ZM108.79 13.04L108.79 13.04Q110.90 13.04 110.90 9.74L110.90 9.74L110.90 9.74Q110.90 6.38 108.79 6.38L108.79 6.38L108.79 6.38Q107.80 6.38 107.25 7.19L107.25 7.19L107.25 7.19Q106.70 8.00 106.70 9.74L106.70 9.74L106.70 9.74Q106.70 11.45 107.25 12.24L107.25 12.24L107.25 12.24Q107.80 13.04 108.79 13.04L108.79 13.04ZM113.36 13.78L113.36 5.63L114.37 5.63L114.37 6.96L114.40 6.96L114.40 6.96Q114.64 6.27 115.05 5.89L115.05 5.89L115.05 5.89Q115.47 5.51 115.99 5.51L115.99 5.51L115.99 5.51Q116.55 5.51 116.83 5.65L116.83 5.65L116.83 6.59L116.83 6.59Q116.44 6.47 116.18 6.47L116.18 6.47L116.18 6.47Q116.10 6.47 116.07 6.48L116.07 6.48L116.07 6.48Q115.24 6.56 114.80 7.30L114.80 7.30L114.80 7.30Q114.35 8.05 114.35 9.39L114.35 9.39L114.35 13.78L113.36 13.78ZM119.85 5.48L119.85 5.48Q120.59 5.48 121.16 5.75L121.16 5.75L121.16 5.75Q121.73 6.03 122.06 6.58L122.06 6.58L122.06 6.58Q122.39 7.12 122.39 7.90L122.39 7.90L122.39 13.78L121.54 13.78L121.48 12.46L121.41 12.46L121.41 12.46Q121.04 13.13 120.43 13.55L120.43 13.55L120.43 13.55Q119.82 13.96 119.18 13.96L119.18 13.96L119.18 13.96Q118.56 13.96 118.08 13.69L118.08 13.69L118.08 13.69Q117.60 13.41 117.33 12.94L117.33 12.94L117.33 12.94Q117.07 12.47 117.07 11.90L117.07 11.90L117.07 11.90Q117.07 11.04 117.42 10.45L117.42 10.45L117.42 10.45Q117.78 9.85 118.49 9.41L118.49 9.41L118.49 9.41Q119.07 9.05 119.82 8.81L119.82 8.81L119.82 8.81Q120.58 8.57 121.47 8.47L121.47 8.47L121.47 8.04L121.47 8.04Q121.47 7.17 121.08 6.79L121.08 6.79L121.08 6.79Q120.70 6.41 119.93 6.41L119.93 6.41L119.93 6.41Q119.24 6.41 118.77 6.72L118.77 6.72L118.77 6.72Q118.30 7.03 117.95 7.67L117.95 7.67L117.21 7.13L117.21 7.13Q117.66 6.29 118.31 5.88L118.31 5.88L118.31 5.88Q118.96 5.48 119.85 5.48L119.85 5.48ZM119.31 12.99L119.31 12.99Q120.05 12.99 120.58 12.52L120.58 12.52L120.58 12.52Q121.11 12.04 121.47 11.29L121.47 11.29L121.47 9.34L121.47 9.34Q120.72 9.43 120.07 9.64L120.07 9.64L120.07 9.64Q119.42 9.84 118.96 10.19L118.96 10.19L118.96 10.19Q118.56 10.48 118.35 10.88L118.35 10.88L118.35 10.88Q118.13 11.27 118.13 11.76L118.13 11.76L118.13 11.76Q118.13 12.32 118.46 12.65L118.46 12.65L118.46 12.65Q118.79 12.99 119.31 12.99L119.31 12.99Z"></path></g><!----><g data-v-423bf9ae="" id="8785bfa3-24d3-440a-b055-4cd975f2b512" transform="matrix(1.4516129032258065,0,0,1.4516129032258065,273.4319558297434,-7.258064516129032)" stroke="none" fill="white"><path d="M16 19.2l.4-1.5c.1-.4-.1-.7-.5-.8l-2-.4c-.3-.1-.7.1-.8.5l-.4 1.5c2.7.6 2.5.5 3.3.7zM6.1 61.8c-.6.9-.5 2.2.3 2.9.5.5 1.2.8 1.9.7.7 0 1.3-.4 1.7-1l7.8-12.3.6-3.7c-1.2-.3-2.4-.7-3.5-1.2L6.1 61.8zM33.6 17.3c2.1-1 3.6-3 3.9-5.3H32c.5 1.6.5 1.5 1.6 5.3z"></path><path d="M30.6 14.4c-.1-.2-1-3.1-1-3.3 0-.6.4-1 1-1h3.5V8.5c0-1.9-1.5-3.5-3.5-3.5-1.9 0-3.5 1.6-3.5 3.5v2.4c.1 1.9 1.6 3.5 3.5 3.5zM31.5 47.4c-1.1.7-2.4 1.2-3.9 1.5l2.1 2.3c.2.2.3.4.3.7V65c0 .5.2 1 .6 1.4.4.4.9.6 1.4.6 1.1 0 2-.9 2-2V50.9c0-.6-.3-1.2-.7-1.7l-1.8-1.8z"></path><path d="M56.3 40.8c-6.4-3.1-15.8-5.7-16.8-5.4.1-1-.5-1.9-1.5-2.3l-6.1-2.3c-.2-.1-.4-.2-.5-.4-1.1-1.6-1.8-2.6-2.5-4.6-3.7-10.4-7.8-7.9-8.9-4.5-3.4 14.6-.6 2.9-4.5 19.5v3.1c-3.2-1.4-5.5-3.4-5.4-5.8 1 .2 3.6 1.2 4.2-1.2 2-8.5 1.3-5.5 3-13.2.2-1.2-.5-2.2-1.6-2.5-1.3-.3-.9-.2-3.7-.8-1-.3-2.2.4-2.5 1.6l-3 13.1c-.2 1 .2 2.1 1.6 2.5C7.3 44.2 18.7 48 24.6 48c9.3 0 9.4-5.2 15.4-10.6 1.8.4 8.8 1.9 15.4 5.1.5.2 1.1 0 1.3-.5.3-.4.1-1-.4-1.2zm-37.4 4.3l.5-3.1c.1-.9 1.2-1.1 1.7-.5l4 4.5c-2.2 0-4-.3-6.2-.9zm12.2-.9c-.6.4-1.2.7-1.9 1l-4.8-4.9c-.2-.2-.3-.6-.3-.9l1.6-7.9-2.9-5.2c-.3-.5-.1-1.1.4-1.4.5-.3 1.1-.1 1.4.4.2.3 4.4 7.9 4.4 7.9l9.2 3.1c-1.5 1.5-1.2 1.2-7.1 7.9zM61.6 45.9c-.4-.4-1-.4-1.4 0s-.4 1 0 1.4l2.5 2.5c.4.4 1 .4 1.4 0 .4-.4.4-1 0-1.4l-2.5-2.5zM58 47.1c-.1-.5-.7-.9-1.2-.7-.5.1-.9.7-.7 1.2l1 3.6c.1.5.7.8 1.2.7.5-.1.9-.7.7-1.2l-1-3.6zM65.6 42.7l-3.6-1c-.5-.1-1.1.2-1.2.7-.1.5.2 1.1.7 1.2l3.6 1c.5.1 1.1-.2 1.2-.7.1-.5-.2-1.1-.7-1.2z"></path></g><!----></svg>